<?xml version="1.0" encoding="utf-8"?>
<!-- Generator: Adobe Illustrator 22.0.1, SVG Export Plug-In . SVG Version: 6.00 Build 0)  -->
<svg version="1.1" id="图层_1" xmlns="http://www.w3.org/2000/svg" xmlns:xlink="http://www.w3.org/1999/xlink" x="0px" y="0px"
	 viewBox="0 0 68 68" style="enable-background:new 0 0 68 68;" xml:space="preserve">
<style type="text/css">
	.st0{fill:#45ACC4;}
	.st1{filter:url(#Adobe_OpacityMaskFilter);}
	.st2{fill:#FFFFFF;}
	.st3{mask:url(#mask-2_1_);fill:#45ACC4;}
</style>
<title>编组 7</title>
<desc>Created with Sketch.</desc>
<g id="页面-1">
	<g id="_x31_1-加载" transform="translate(-341.000000, -331.000000)">
		<g id="编组-7" transform="translate(341.000000, 331.000000)">
			<path id="路径" class="st0" d="M15.4,5.5C5.9,11.8,0,22.4,0,34c0,18.8,15.2,34,34,34s34-15.2,34-34S52.8,0,34,0
				c-0.6,0-1.3,0-1.9,0.1c-1.5,0.1-2.7,1.4-2.6,2.9c0.1,1.5,1.4,2.7,2.9,2.6c0.5,0,1,0,1.6,0c15.7,0,28.5,12.8,28.5,28.5
				S49.7,62.5,34,62.5S5.5,49.7,5.5,34c0-9.7,4.9-18.6,12.9-23.8c1.3-0.8,1.6-2.5,0.8-3.8S16.7,4.7,15.4,5.5z"/>
			<path id="矩形" class="st0" d="M3.5,7.9L16,5.3c1.5-0.3,2.9,0.6,3.3,2.1c0,0,0,0,0,0c0.3,1.5-0.6,3-2.1,3.3L4.7,13.3
				c-1.5,0.3-2.9-0.6-3.3-2.1c0,0,0,0,0,0C1.1,9.7,2,8.2,3.5,7.9z"/>
			<g id="编组" transform="translate(16.000000, 25.000000)">
				<g id="Clip-2">
				</g>
				<defs>
					<filter id="Adobe_OpacityMaskFilter" filterUnits="userSpaceOnUse" x="0" y="0" width="38" height="25">
						<feColorMatrix  type="matrix" values="1 0 0 0 0  0 1 0 0 0  0 0 1 0 0  0 0 0 1 0"/>
					</filter>
				</defs>
				<mask maskUnits="userSpaceOnUse" x="0" y="0" width="38" height="25" id="mask-2_1_">
					<g class="st1">
						<polygon id="path-1_1_" class="st2" points="0,0 38,0 38,25 0,25 						"/>
					</g>
				</mask>
				<path id="Fill-1" class="st3" d="M36.7,0l-5,0.9c-0.8,0.2-1.5,0.8-1.7,1.6l-4.7,17.5L21,2.1c-0.2-1-1.1-1.7-2.1-1.7h-2.8
					c-1,0-1.9,0.7-2.1,1.7l-4.3,18L4.5,0.8C4.5,0.5,4.2,0.4,4,0.4H0.6C0.2,0.4-0.1,0.7,0,1.1l6,22.3c0.3,1,1.1,1.7,2.1,1.7h3.2
					c1,0,1.9-0.7,2.1-1.7l4-16.9l4,16.9c0.2,1,1.1,1.7,2.1,1.7h3.2c1,0,1.9-0.7,2.1-1.7l4.8-17.9C33.8,5.2,34,5.1,34.2,5l3.3-0.6
					C37.8,4.4,38,4.1,38,3.8l-0.6-3.3C37.3,0.2,37,0,36.7,0"/>
			</g>
		</g>
	</g>
</g>
</svg>
