<?xml version="1.0" encoding="utf-8"?>
<!-- Generator: Adobe Illustrator 22.0.1, SVG Export Plug-In . SVG Version: 6.00 Build 0)  -->
<svg version="1.1" id="图层_1" xmlns="http://www.w3.org/2000/svg" xmlns:xlink="http://www.w3.org/1999/xlink" x="0px" y="0px"
	 viewBox="0 0 182 141" style="enable-background:new 0 0 182 141;" xml:space="preserve">
<style type="text/css">
	.st0{fill:#5A5A5E;}
	.st1{fill:#98989F;}
</style>
<title>编组</title>
<desc>Created with Sketch.</desc>
<g id="页面-1">
	<g id="_x31_1-无数据" transform="translate(-284.000000, -550.000000)">
		<g id="编组" transform="translate(284.088586, 550.170793)">
			<path id="形状结合" class="st0" d="M175.7,116.2c0.5,0,0.9,2.1,0.9,4.8c2.7,0.1,4.8,0.5,4.8,0.9s-2.1,0.9-4.8,0.9
				c-0.1,2.7-0.5,4.8-0.9,4.8s-0.9-2.1-0.9-4.8c-2.7-0.1-4.8-0.5-4.8-0.9s2.1-0.9,4.8-0.9C174.8,118.3,175.2,116.2,175.7,116.2z
				 M19.5,86.7c0.5,0,0.9,2.1,0.9,4.8c2.7,0.1,4.8,0.5,4.8,0.9c0,0.5-2.1,0.9-4.8,0.9c-0.1,2.7-0.5,4.8-0.9,4.8
				c-0.5,0-0.9-2.1-0.9-4.8c-2.7-0.1-4.8-0.5-4.8-0.9c0-0.5,2.1-0.9,4.8-0.9C18.6,88.7,19,86.7,19.5,86.7z M40.7,45.8l0.1,1.9
				c-1.3,0.1-2.6,0.1-3.9,0.1l0-1.9C38.2,45.9,39.4,45.8,40.7,45.8z M29.4,45.3c1.3,0.2,2.5,0.3,3.7,0.4L33,47.6
				c-1.3-0.1-2.6-0.2-3.8-0.4L29.4,45.3z M48.2,44.9l0.4,1.9c-1.3,0.2-2.5,0.5-3.8,0.6l-0.2-1.9C45.7,45.3,47,45.1,48.2,44.9z
				 M22,43.9c1.2,0.3,2.5,0.6,3.7,0.8l-0.4,1.9c-1.3-0.2-2.5-0.5-3.8-0.8L22,43.9z M55.3,42.9l0.6,1.8c-1.2,0.4-2.5,0.8-3.7,1.2
				L51.7,44C52.9,43.7,54.1,43.3,55.3,42.9z M14.8,41.7c1.2,0.4,2.4,0.8,3.6,1.1l-0.5,1.8c-1.2-0.4-2.4-0.7-3.7-1.2L14.8,41.7z
				 M62.2,39.9l0.9,1.7c-1.2,0.6-2.3,1.2-3.5,1.7l-0.8-1.7C60,41,61.1,40.5,62.2,39.9z M7.7,39c1.2,0.5,2.3,1,3.5,1.4l-0.7,1.8
				c-1.2-0.5-2.4-0.9-3.6-1.4h0L7.7,39z M68.6,35.9l1.1,1.6c-1.1,0.8-2.1,1.5-3.2,2.1l-1-1.6C66.6,37.3,67.6,36.7,68.6,35.9z
				 M0.9,35.9C2,36.4,3.1,37,4.3,37.5l-0.8,1.7c-1.2-0.5-2.3-1.1-3.5-1.7L0.9,35.9z M74.5,31.2l1.3,1.4c-1,0.9-1.9,1.7-2.9,2.5
				l-1.2-1.5C72.6,32.8,73.6,32,74.5,31.2z M79.9,25.8l1.4,1.3c-0.9,1-1.8,1.9-2.6,2.8v0l-1.4-1.3C78.2,27.6,79,26.7,79.9,25.8z
				 M86.4,26.1c0.1,0.2,0.2,0.3,0.4,0.4c0.7,0.7,1.4,1,2.1,1l0,0l0.2,1.9c-1.3,0.1-2.5-0.4-3.6-1.5c-0.2-0.2-0.4-0.4-0.5-0.6
				L86.4,26.1z M92.7,22.6l1.9,0.3c-0.3,1.4-0.8,2.7-1.6,3.9l-1.6-1.1C92,24.8,92.5,23.6,92.7,22.6L92.7,22.6z M82.8,19.4l1.9,0.1
				l0,0.4l0,0.4l1.3,1l-0.6,0.8L85,22.7L85,23l-0.4,0.1l-0.4,0.5c-0.2,0.2-0.4,0.5-0.6,0.7l-1.5-1.2l0.6-0.7l0.2-0.2l0-0.3
				C82.8,21.1,82.8,20.2,82.8,19.4z M161.4,14.3c2.6,0,4.8,2.1,4.8,4.8s-2.1,4.8-4.8,4.8s-4.8-2.1-4.8-4.8S158.7,14.3,161.4,14.3z
				 M84.7,20.3l-0.2-0.1c-0.4,0.5-0.8,1-1.2,1.5L83,22.1l0,0.3c0,0.2,0.1,0.3,0.1,0.5l0.1,0.5l1.5-0.3l0.2-0.2l0.1-0.2l0-0.1
				C84.8,21.8,84.7,21.1,84.7,20.3L84.7,20.3l-0.2-0.1L84.7,20.3z M146.3,18.8l0.1,1.9c-1.4,0.1-2.7,0.1-3.9,0.1l0-1.9
				C143.8,18.9,145.1,18.8,146.3,18.8z M135.2,18.2c1.2,0.3,2.4,0.5,3.6,0.6l-0.2,1.9c-1.3-0.1-2.6-0.3-3.9-0.6L135.2,18.2z
				 M153.9,18.1l0.2,1.9c-1.3,0.1-2.6,0.3-3.8,0.4l-0.2-1.9C151.4,18.4,152.6,18.2,153.9,18.1z M92.6,18.6L92,20.3
				c-0.8-0.3-2-0.4-3.4-0.2l-0.2-1.9C90.1,18.1,91.5,18.1,92.6,18.6z M161.5,18.1l0.1,0.9c-0.4,0.1-0.8,0.1-1.2,0.2
				c0.1,0.5,0.5,0.8,0.9,0.8c0.5,0,1-0.4,1-1C162.3,18.6,162,18.2,161.5,18.1z M128.1,15.8c1.1,0.5,2.3,0.9,3.5,1.3L131,19
				c-1.2-0.4-2.4-0.9-3.6-1.4L128.1,15.8z M121.4,12.5c1.1,0.6,2.2,1.2,3.3,1.8l-0.8,1.7c-1.1-0.6-2.3-1.2-3.4-1.8L121.4,12.5z
				 M84.8,11.6l1.7,0.8c-0.5,1.1-0.9,2.2-1.3,3.4l-1.8-0.5C83.8,14.1,84.2,12.8,84.8,11.6z M122.4,8.9l0.9,1.7l-3.4,1.7l-0.8-1.7
				L122.4,8.9z M89.4,5.2l1.3,1.4c-0.9,0.9-1.7,1.8-2.4,2.8l-1.5-1.1C87.6,7.1,88.5,6.1,89.4,5.2z M129.3,5.5l0.8,1.7l-3.4,1.7
				l-0.9-1.7L129.3,5.5z M123.2,3.2c1.2,0.3,2.4,0.7,3.7,1.1l-0.6,1.8c-0.9-0.3-1.8-0.6-2.7-0.8L122.7,5L123.2,3.2z M122.7,5
				L122.7,5L122.7,5L122.7,5z M96.3,1l0.6,1.8c-1.1,0.3-2.2,0.8-3.3,1.4l-1-1.6C93.8,1.9,95,1.4,96.3,1z M115.8,1.4
				c1.2,0.2,2.5,0.5,3.8,0.9l-0.5,1.8c-1.2-0.3-2.4-0.6-3.7-0.8L115.8,1.4z M108.1,0.2c1.2,0.1,2.5,0.3,3.8,0.5l-0.3,1.9
				c-1.2-0.2-2.5-0.3-3.7-0.5L108.1,0.2z M104.3,0l0,1.9c-1.3,0-2.5,0.1-3.7,0.2l-0.2-1.9C101.6,0.1,102.9,0,104.3,0z"/>
			<path id="形状" class="st1" d="M137.6,35.2c4.2,0,7.6,3.4,7.6,7.6v89.5c0,4.2-3.4,7.6-7.6,7.6h-15.2c-4.2,0-7.6-3.4-7.6-7.6
				V42.9c0-4.2,3.4-7.6,7.6-7.6H137.6z M99.5,67.6c4.2,0,7.6,3.4,7.6,7.6v57.1c0,4.2-3.4,7.6-7.6,7.6H84.2c-4.2,0-7.6-3.4-7.6-7.6
				V75.2c0-4.2,3.4-7.6,7.6-7.6H99.5z M61.4,96.2c4.2,0,7.6,3.4,7.6,7.6v28.6c0,4.2-3.4,7.6-7.6,7.6H46.1c-4.2,0-7.6-3.4-7.6-7.6
				v-28.6c0-4.2,3.4-7.6,7.6-7.6H61.4z M137.6,37.1h-15.2c-3.2,0-5.7,2.6-5.7,5.7v89.5c0,3.2,2.6,5.7,5.7,5.7h15.2
				c3.2,0,5.7-2.6,5.7-5.7V42.9C143.3,39.7,140.7,37.1,137.6,37.1z M99.5,69.5H84.2c-3.2,0-5.7,2.6-5.7,5.7v57.1
				c0,3.2,2.6,5.7,5.7,5.7h15.2c1.5,0,3-0.6,4-1.7c1.1-1.1,1.7-2.5,1.7-4V75.2c0-1.5-0.6-3-1.7-4C102.4,70.1,101,69.5,99.5,69.5z
				 M61.4,98.1H46.1c-3.2,0-5.7,2.6-5.7,5.7v28.6c0,3.2,2.6,5.7,5.7,5.7h15.2c3.2,0,5.7-2.6,5.7-5.7v-28.6
				C67.1,100.7,64.5,98.1,61.4,98.1z M56.5,28.7c7,0.1,11.2,1.8,14.5,7.4l-0.2,0.1l0.3-0.1c1.3-0.3,2.3-0.9,3-1.6
				c0.8-0.8,2-2.7,3.7-5.5l1.7,0.9c-1.7,3-3,4.9-4,5.9c-0.9,0.9-2.1,1.5-3.5,2l0,0.1c0,0.3,0,0.5,0,0.8c0,0.6-0.1,1.3-0.2,2
				c-0.3,2.1-0.7,4.1-1.4,6.1c-1.9,5.9-5.3,9.9-10.6,11.1c-10.3,2.3-18.7,0-25.1-6.7c-0.6,0.1-1.1,0.1-1.7,0.2l-0.2-1.9l0.4,0
				c-0.4-0.5-0.7-0.9-1.1-1.4l-1.6-2.2l2.6,0.7c1.8,0.5,4.1-2.3,6.5-8.9l0.2-0.3c0.4-0.5,0.9-0.9,1.4-1.4c1.1-1.1,2.4-2.1,3.6-3
				C48.6,30.3,52.6,28.7,56.5,28.7z M45.2,49.8l-0.6,0.1c-2.3,0.4-4.8,0.7-7.6,1c4.2,4,9.2,6,15.2,6c-2.2-0.3-3.8-1-4.8-2
				C46.1,53.7,45.4,52,45.2,49.8z M60.7,46.2l-0.2,0.1c-0.9,0.3-2,0.6-3.3,1c-0.4,0.1-0.8,0.2-1.2,0.4c-2,0.6-4.6,1.2-7.8,1.8l0,0.2
				c-0.4,0-0.7,0.1-1,0.1c0.1,1.8,0.7,3.1,1.6,4c1,1,3.4,1.6,6.9,1.6l0,1.5c1.2-0.1,2.4-0.3,3.6-0.6c0.3-0.1,0.6-0.1,0.9-0.2
				c-1.1-2.3-1.6-4.1-1.6-5.4C58.5,49.3,59.2,47.9,60.7,46.2z M69.8,39.8c-1.7,1.9-3.1,3.1-4.1,3.9c-0.8,0.5-1.5,1-2.2,1.4l0.4,0.4
				c-2.4,2.4-3.5,4.1-3.5,5c0,1,0.5,2.6,1.5,4.7c3-1.6,5.2-4.7,6.5-8.8c0.6-1.9,1-3.9,1.3-5.8L69.8,39.8z M39.7,42.4l-0.1,0.3
				c-1.5,3.2-3.1,5.1-4.9,5.7c0.2,0.3,0.5,0.6,0.7,0.8c2.6-0.3,5-0.6,7.2-0.9c-0.4-0.3-0.7-0.7-1-1.1C40.6,45.8,40,44.2,39.7,42.4z
				 M49.2,32.5l-0.3,0.2c-1,0.5-2,1.2-3.1,1.9c-1.6,1.2-3.2,2.5-4.6,3.9c-0.3,0.9-0.6,1.7-1,2.5l1.1-0.1c0.2,2.1,0.8,3.8,1.7,5.3
				c0.7,1,1.7,1.5,3.3,1.6c3.7-0.6,6.7-1.3,8.9-1.9c0.4-0.1,0.7-0.2,1.3-0.4c1-0.3,1.9-0.5,2.6-0.8c-3.1-1-5.1-2-6.2-3
				C51.7,40.3,50.5,37.3,49.2,32.5z M51.2,31.6L51,31.7c1.2,4.6,2.4,7.5,3.4,8.6c1,1,3.6,2.1,7.8,3.2c0.8-0.4,1.6-0.8,2.4-1.4
				c1.1-0.8,2.7-2.3,4.8-4.7c-2.9-5.1-6.5-6.6-13-6.7C54.8,30.6,53,31,51.2,31.6z"/>
		</g>
	</g>
</g>
</svg>
