<?xml version="1.0" encoding="UTF-8"?>
<svg width="30px" height="32px" viewBox="0 0 30 32" version="1.1" xmlns="http://www.w3.org/2000/svg" xmlns:xlink="http://www.w3.org/1999/xlink">
    <!-- Generator: Sketch 59.1 (86144) - https://sketch.com -->
    <title>分享</title>
    <desc>Created with Sketch.</desc>
    <g id="页面-1" stroke="none" stroke-width="1" fill="none" fill-rule="evenodd">
        <g id="画板" transform="translate(-839.000000, -320.000000)" fill="#B0B0B0">
            <path d="M862.457624,340.384423 C860.238818,340.384423 858.306501,341.587836 857.29703,343.366289 L850.00221,339.528046 C850.516778,338.666565 850.812624,337.663049 850.812624,336.59132 C850.812624,335.815808 850.657574,335.075948 850.37686,334.39927 L858.426097,329.366239 C859.506917,330.734258 861.195437,331.614787 863.093542,331.614787 C866.354861,331.614787 869,329.014747 869,325.807968 C869,322.600328 866.354861,320 863.093542,320 C859.831638,320 857.187376,322.600328 857.187376,325.807968 C857.187376,326.553722 857.33073,327.266843 857.591413,327.922244 L849.521635,332.967566 C848.439353,331.636638 846.774299,330.783927 844.906458,330.783927 C841.644262,330.783927 839,333.383967 839,336.59132 C839,339.798961 841.644262,342.398426 844.906166,342.398426 C846.459593,342.398426 847.872809,341.808507 848.927092,340.844598 L856.691669,344.929964 C856.598244,345.344136 856.551166,345.767221 856.551458,346.191816 C856.551458,349.39996 859.19572,352 862.457624,352 C865.71982,352 868.363789,349.39996 868.363789,346.191816 C868.363789,342.984966 865.719528,340.384423 862.457624,340.384423 Z M863.098367,321.819999 C865.338299,321.819999 867.154163,323.605209 867.154163,325.807681 C867.154163,328.009794 865.338299,329.795003 863.098367,329.795003 C860.858215,329.795003 859.042936,328.009794 859.042936,325.807681 C859.042936,323.605209 860.858215,321.819999 863.098367,321.819999 Z M844.91099,340.579002 C842.671716,340.579002 840.855559,338.793792 840.855559,336.59132 C840.855559,334.388848 842.671716,332.60371 844.91099,332.60371 C847.15063,332.60371 848.966787,334.388848 848.966787,336.59132 C848.966787,338.793792 847.15063,340.579002 844.91099,340.579002 Z M862.462448,350.179426 C860.222809,350.179426 858.407017,348.394504 858.407017,346.191816 C858.407017,343.989631 860.223101,342.204709 862.462448,342.204709 C864.702088,342.204709 866.517953,343.989631 866.517953,346.191816 C866.517953,348.394504 864.702088,350.179426 862.462448,350.179426 Z" id="分享"></path>
        </g>
    </g>
</svg>