<?xml version="1.0" encoding="UTF-8"?>
<svg width="40px" height="36px" viewBox="0 0 40 36" version="1.1" xmlns="http://www.w3.org/2000/svg" xmlns:xlink="http://www.w3.org/1999/xlink">
    <!-- Generator: Sketch 59.1 (86144) - https://sketch.com -->
    <title>地区名片</title>
    <desc>Created with Sketch.</desc>
    <g id="页面-1" stroke="none" stroke-width="1" fill="none" fill-rule="evenodd">
        <g id="画板" transform="translate(-246.000000, -154.000000)">
            <g id="地区名片" transform="translate(247.000000, 155.000000)">
                <g id="编组-17" transform="translate(4.750000, 15.250000)" fill="#B0B0B0">
                    <rect id="矩形" x="0" y="0" width="8.55" height="1.9"></rect>
                    <rect id="矩形备份" x="0" y="5.7" width="8.55" height="1.9"></rect>
                    <rect id="矩形备份-2" x="0" y="11.4" width="20" height="1.9"></rect>
                </g>
                <path d="M24.7,8.55045399 C24.7,9.59741797 23.8478441,10.45 22.8009688,10.45 C21.7531708,10.45 20.9,9.59741797 20.9,8.55045399 C20.9,7.50258203 21.7531708,6.65 22.8000277,6.65 C23.8478441,6.65 24.7,7.50258203 24.7,8.55045399 Z" id="路径" stroke="#B0B0B0" stroke-width="2"></path>
                <path d="M14.25,8.70524183 C14.25,9.79727906 14.8806575,12.3339666 19.0915644,17.0113469 C20.527615,18.60445 21.976103,19.9872903 22.9749489,20.9 C24.1204849,19.8140652 25.8311372,18.1003631 27.4325341,16.1513238 C29.9546154,13.0795536 31.35,10.4345324 31.35,8.70524183 C31.35,3.90418115 27.5137441,0 22.797043,0 C18.0833904,0 14.25,3.90418115 14.25,8.70524183 Z" id="路径" stroke="#B0B0B0" stroke-width="2"></path>
                <polyline id="路径" stroke="#B0B0B0" stroke-width="2" points="34.7724249 8.55 38 8.55 38 33.25 0 33.25 0 8.55 11.0610582 8.55"></polyline>
            </g>
        </g>
    </g>
</svg>