<?xml version="1.0" standalone="no"?><!DOCTYPE svg PUBLIC "-//W3C//DTD SVG 1.1//EN" "http://www.w3.org/Graphics/SVG/1.1/DTD/svg11.dtd"><svg class="icon" width="200px" height="200.00px" viewBox="0 0 1024 1024" version="1.1" xmlns="http://www.w3.org/2000/svg"><path d="M510.6 476.4c-112.9 0-204.7-91.8-204.7-204.7S397.8 67 510.6 67s204.7 91.8 204.7 204.7-91.8 204.7-204.7 204.7z m0-327.6c-67.8 0-122.9 55.2-122.9 122.9s55.2 122.9 122.9 122.9c67.8 0 122.9-55.2 122.9-122.9s-55.1-122.9-122.9-122.9zM789.5 958.7H231.7c-35.1 0-68.5-10.1-96.6-29.1-26.1-17.7-46.5-42.4-59.2-71.3-27-61.8-14.3-130.2 33.2-178.7 51.3-52.3 111.7-93.5 179.5-122.3 70.2-29.9 144.9-45 222-45s151.8 15.1 222 45c67.8 28.8 128.1 70 179.5 122.3 47.5 48.4 60.3 116.9 33.2 178.7-12.7 29-33.1 53.6-59.2 71.3-28 19-61.4 29.1-96.6 29.1zM510.6 604.9c-126.9 0-245.1 49.3-332.8 138.7-21.1 21.5-26.5 50.7-14.5 78.2 12.1 27.7 37.7 44.2 68.4 44.2h557.8c30.8 0 56.3-16.5 68.4-44.2 12-27.4 6.6-56.7-14.5-78.2-87.7-89.4-205.9-138.7-332.8-138.7z" fill="#d81e06" /></svg>