<?xml version="1.0" encoding="UTF-8"?>
<svg width="38px" height="35px" viewBox="0 0 38 35" version="1.1" xmlns="http://www.w3.org/2000/svg" xmlns:xlink="http://www.w3.org/1999/xlink">
    <!-- Generator: Sketch 59.1 (86144) - https://sketch.com -->
    <title>地区名片蓝</title>
    <desc>Created with Sketch.</desc>
    <g id="页面-1" stroke="none" stroke-width="1" fill="none" fill-rule="evenodd">
        <g id="画板" transform="translate(-247.000000, -208.000000)" fill="#3DC1D4">
            <g id="地区名片蓝" transform="translate(247.000000, 209.000000)">
                <path d="M38,8.55 L38,33.25 L0,33.25 L0,8.55 L38,8.55 Z M24.75,26.65 L4.75,26.65 L4.75,28.55 L24.75,28.55 L24.75,26.65 Z M13.3,20.95 L4.75,20.95 L4.75,22.85 L13.3,22.85 L13.3,20.95 Z M13.3,15.25 L4.75,15.25 L4.75,17.15 L13.3,17.15 L13.3,15.25 Z" id="形状结合"></path>
                <g id="编组-18" transform="translate(14.000000, 0.000000)" stroke="#2C2C2E" stroke-width="2">
                    <path d="M0.25,8.70524183 C0.25,9.79727906 0.880657496,12.3339666 5.09156443,17.0113469 C6.52761496,18.60445 7.97610305,19.9872903 8.97494893,20.9 C10.1204849,19.8140652 11.8311372,18.1003631 13.4325341,16.1513238 C15.9546154,13.0795536 17.35,10.4345324 17.35,8.70524183 C17.35,3.90418115 13.5137441,0 8.79704303,0 C4.08339038,0 0.25,3.90418115 0.25,8.70524183 Z" id="路径"></path>
                    <path d="M10.7,8.55045399 C10.7,9.59741797 9.84784412,10.45 8.8009688,10.45 C7.75317081,10.45 6.9,9.59741797 6.9,8.55045399 C6.9,7.50258203 7.75317081,6.65 8.80002768,6.65 C9.84784412,6.65 10.7,7.50258203 10.7,8.55045399 Z" id="路径"></path>
                </g>
            </g>
        </g>
    </g>
</svg>