<?xml version="1.0" encoding="UTF-8"?>
<svg width="40px" height="38px" viewBox="0 0 40 38" version="1.1" xmlns="http://www.w3.org/2000/svg" xmlns:xlink="http://www.w3.org/1999/xlink">
    <!-- Generator: Sketch 59.1 (86144) - https://sketch.com -->
    <title>企业监控蓝</title>
    <desc>Created with Sketch.</desc>
    <g id="页面-1" stroke="none" stroke-width="1" fill="none" fill-rule="evenodd">
        <g id="画板" transform="translate(-489.000000, -225.000000)">
            <g id="企业监控蓝" transform="translate(490.000000, 226.000000)">
                <rect id="矩形" stroke="#3DC1D4" stroke-width="2" fill="#3DC1D4" x="0" y="0" width="38" height="36"></rect>
                <g id="Page-1" transform="translate(9.243243, 6.162162)" fill="#2C2C2E">
                    <g id="Group-6">
                        <path d="M6.52885124,11.8221961 C6.52885124,9.79508487 8.19328197,8.14810698 10.2415135,8.14810698 C12.2895833,8.14810698 13.954014,9.79508487 13.954014,11.8221961 C13.954014,13.8491473 12.2895833,15.4961252 10.2415135,15.4961252 C8.19328197,15.4961252 6.52885124,13.8491473 6.52885124,11.8221961 M15.6181213,11.8221961 C15.6181213,8.90821369 13.1859272,6.62789358 10.2415135,6.62789358 C7.29709981,6.62789358 4.86474399,9.03497817 4.86474399,11.8221961 C4.86474399,14.7360185 7.29709981,17.1431031 10.2415135,17.1431031 C13.1859272,17.1431031 15.6181213,14.7360185 15.6181213,11.8221961" id="Fill-1"></path>
                        <g id="Group-5">
                            <path d="M6.78504192,23.2240848 L7.9370913,20.183658 L7.9370913,20.0568935 C8.70517812,20.183658 9.34533135,20.3102624 10.1134182,20.3102624 C10.7534097,20.3102624 11.5216582,20.183658 12.1618114,20.0568935 L12.1618114,20.183658 L13.3138608,23.2240848 L6.78504192,23.2240848 Z M1.536206,10.1751862 C1.536206,5.48778154 5.37680187,1.56032348 10.2415135,1.56032348 C15.1062252,1.56032348 18.946821,5.36101706 18.946821,10.1751862 C18.946821,14.9893554 15.1062252,18.7898889 10.2415135,18.7898889 C5.37680187,18.7898889 1.536206,14.9893554 1.536206,10.1751862 L1.536206,10.1751862 Z M15.2343205,23.2240848 L13.8259187,19.6767601 C17.7946099,18.2833112 20.4829947,14.4826176 20.4829947,10.1751862 C20.4829947,4.60091035 15.8741502,0.0401100737 10.2415135,0.0401100737 C4.60871505,0.0401100737 3.23473079e-05,4.60091035 3.23473079e-05,10.1751862 C3.23473079e-05,14.4826176 2.68841711,18.1565467 6.52885124,19.5501557 L5.12077293,23.0974804 L3.71253288,23.0974804 L3.71253288,24.6178538 L17.1544567,24.6178538 L17.1544567,23.2240848 L15.2343205,23.2240848 Z" id="Fill-3"></path>
                        </g>
                    </g>
                    <path d="M8.9306698,4.84174055 C8.9306698,5.57110041 9.53044797,6.16216216 10.2703549,6.16216216 C11.0100926,6.16216216 11.6098707,5.57110041 11.6098707,4.84174055 C11.6098707,4.36995883 11.3544912,3.93404453 10.9400282,3.69815367 C10.5257345,3.46226281 10.0151445,3.46226281 9.60051234,3.69815367 C9.18604939,3.93404453 8.9306698,4.36995883 8.9306698,4.84174055" id="Fill-7"></path>
                </g>
            </g>
        </g>
    </g>
</svg>