<?xml version="1.0" encoding="UTF-8"?>
<svg width="31px" height="31px" viewBox="0 0 31 31" version="1.1" xmlns="http://www.w3.org/2000/svg" xmlns:xlink="http://www.w3.org/1999/xlink">
    <!-- Generator: Sketch 59.1 (86144) - https://sketch.com -->
    <title>关闭</title>
    <desc>Created with Sketch.</desc>
    <g id="页面-1" stroke="none" stroke-width="1" fill="none" fill-rule="evenodd">
        <g id="画板" transform="translate(-1344.000000, -335.000000)" fill="#B0B0B0" stroke="#B0B0B0">
            <g id="关闭" transform="translate(1345.000000, 336.000000)">
                <g id="编组-3">
                    <path d="M1.52715676,28.5369 C1.30342602,28.7664228 0.973385703,28.857844 0.663363864,28.7762085 C0.353165652,28.694617 0.11118018,28.4525315 0.0293425281,28.1425632 C-0.0522746562,27.8326391 0.0391753926,27.5027468 0.268770573,27.2789102 L27.2075793,0.275741763 C27.4304282,0.0418991103 27.7624968,-0.0526077033 28.0751201,0.0286311295 C28.3877435,0.109737723 28.6318014,0.354071337 28.7125808,0.66677252 C28.7931838,0.979473703 28.6981181,1.31126138 28.4638931,1.53373148 L1.52715676,28.5369 Z" id="Fill-1复制"></path>
                    <path d="M1.52715676,28.5369 C1.30342602,28.7664228 0.973385703,28.857844 0.663363864,28.7762085 C0.353165652,28.694617 0.11118018,28.4525315 0.0293425281,28.1425632 C-0.0522746562,27.8326391 0.0391753926,27.5027468 0.268770573,27.2789102 L27.2075793,0.275741763 C27.4304282,0.0418991103 27.7624968,-0.0526077033 28.0751201,0.0286311295 C28.3877435,0.109737723 28.6318014,0.354071337 28.7125808,0.66677252 C28.7931838,0.979473703 28.6981181,1.31126138 28.4638931,1.53373148 L1.52715676,28.5369 Z" id="Fill-1复制-2" transform="translate(14.370388, 14.402783) scale(-1, 1) translate(-14.370388, -14.402783) "></path>
                </g>
            </g>
        </g>
    </g>
</svg>