<?xml version="1.0" encoding="UTF-8"?>
<svg width="72px" height="49px" viewBox="0 0 72 49" version="1.1" xmlns="http://www.w3.org/2000/svg" xmlns:xlink="http://www.w3.org/1999/xlink">
    <!-- Generator: Sketch 59.1 (86144) - https://sketch.com -->
    <title>手</title>
    <desc>Created with Sketch.</desc>
    <g id="页面-1" stroke="none" stroke-width="1" fill="none" fill-rule="evenodd">
        <g id="画板" transform="translate(-1252.000000, -532.000000)">
            <g id="手" transform="translate(1253.000000, 532.000000)">
                <path d="M3.23848233,23.5 C8.05663644,23.2069979 8.05663644,22 10.4257943,21.0773839 C15.2043365,19.1563649 19.0416251,17.5311125 22.6139638,14.4579783 C24.2951279,13.0132356 26.0549354,11.6998599 27.6309961,10.0974866 C29.1807931,8.521426 32.0175059,8.78416004 33.304618,9.99243229 C34.8807277,11.4634386 35.0908855,13.8011923 33.7775098,15.7187778 C33.1995637,16.6118379 32.6217648,17.4785853 31.8338081,18.660594 L33.9351404,18.660594 C39.5562352,18.660594 43.4963622,18.6082632 49.143917,18.6082632 C53.1102585,18.6082632 54.5816503,20.5782285 54.5816503,22.7057754 C54.6075284,24.7022007 53.2941527,26.5671117 49.9844008,26.6459024 C48.2245932,26.6984296 46.5171656,26.672166 44.363306,26.5933753 C42.7991068,26.6459024 38.1968557,26.5933753 39.1360669,26.5933753 C43.5075559,26.5933753 43.9503394,28.4551868 43.9503394,30.025293 C43.9503394,31.5953992 41.7737523,34.0863655 37.1922179,34.0863655 C36.7037888,34.0863655 40.9686191,33.6731253 41.3550538,34.8246832 C42.9070222,39.4494783 38.0428218,38.7875245 37.1922179,38.7875245 C36.3416139,38.7875245 39.3330558,39.3934866 39.6187039,40.7546872 C40.1219774,43.1529396 38.7157513,44.0348021 37.1922179,44.954273 C35.694948,45.8735968 33.7775098,45.6897026 32.0963457,45.6371754 C28.8130047,45.5320719 25.4771365,45.6897026 22.1935991,45.2430743 C18.8052038,44.7703789 16.2376951,43.3312164 12.993523,42 C10.4506484,40.9565546 8.80659001,39.9332627 3.88460142,39.4494783 C2.69960432,38.5531247 1.8950705,37.6935863 1.47099997,36.870863 C-1.48451633,31.136977 0.484756389,23.6674599 3.23848233,23.5 Z" id="Fill-1" stroke="#FFFFFF" stroke-width="2" stroke-linecap="round"></path>
                <path d="M50.7483967,5 L46.415057,5 C45.9547307,5 45.5816503,4.32845275 45.5816503,3.4998623 C45.5816503,2.67154725 45.9547307,2 46.415057,2 L50.7483967,2 C51.208264,2 51.5816503,2.67209804 51.5816503,3.4998623 C51.5816503,4.32790196 51.208417,5 50.7483967,5 Z" id="路径" fill="#FFFFFF" transform="translate(48.581650, 3.500000) rotate(88.000000) translate(-48.581650, -3.500000) "></path>
                <path d="M51.7483967,47 L47.415057,47 C46.9547307,47 46.5816503,46.3284527 46.5816503,45.4998623 C46.5816503,44.6715473 46.9547307,44 47.415057,44 L51.7483967,44 C52.208264,44 52.5816503,44.672098 52.5816503,45.4998623 C52.5816503,46.327902 52.208417,47 51.7483967,47 Z" id="路径备份-4" fill="#FFFFFF" transform="translate(49.581650, 45.500000) rotate(88.000000) translate(-49.581650, -45.500000) "></path>
                <path d="M64.7483967,11 L60.415057,11 C59.9547307,11 59.5816503,10.3284527 59.5816503,9.4998623 C59.5816503,8.67154725 59.9547307,8 60.415057,8 L64.7483967,8 C65.208264,8 65.5816503,8.67209804 65.5816503,9.4998623 C65.5816503,10.327902 65.208417,11 64.7483967,11 Z" id="路径备份" fill="#FFFFFF" transform="translate(62.581650, 9.500000) rotate(-47.000000) translate(-62.581650, -9.500000) "></path>
                <path d="M63.7483967,40 L59.415057,40 C58.9547307,40 58.5816503,39.3284527 58.5816503,38.4998623 C58.5816503,37.6715473 58.9547307,37 59.415057,37 L63.7483967,37 C64.208264,37 64.5816503,37.672098 64.5816503,38.4998623 C64.5816503,39.327902 64.208417,40 63.7483967,40 Z" id="路径备份-3" fill="#FFFFFF" transform="translate(61.581650, 38.500000) rotate(52.000000) translate(-61.581650, -38.500000) "></path>
                <path d="M69.7483967,25 L65.415057,25 C64.9547307,25 64.5816503,24.3284527 64.5816503,23.4998623 C64.5816503,22.6715473 64.9547307,22 65.415057,22 L69.7483967,22 C70.208264,22 70.5816503,22.672098 70.5816503,23.4998623 C70.5816503,24.327902 70.208417,25 69.7483967,25 Z" id="路径备份-2" fill="#FFFFFF" transform="translate(67.581650, 23.500000) rotate(-2.000000) translate(-67.581650, -23.500000) "></path>
            </g>
        </g>
    </g>
</svg>