<?xml version="1.0" encoding="UTF-8"?>
<svg width="30px" height="30px" viewBox="0 0 30 30" version="1.1" xmlns="http://www.w3.org/2000/svg" xmlns:xlink="http://www.w3.org/1999/xlink">
    <!-- Generator: Sketch 59.1 (86144) - https://sketch.com -->
    <title>横屏</title>
    <desc>Created with Sketch.</desc>
    <defs>
        <polygon id="path-1" points="9.57069809e-17 0 16.3636364 0 16.3636364 25.4545455 9.57069809e-17 25.4545455"></polygon>
    </defs>
    <g id="页面-1" stroke="none" stroke-width="1" fill="none" fill-rule="evenodd">
        <g id="画板" transform="translate(-839.000000, -161.000000)">
            <g id="横屏" transform="translate(839.000000, 161.000000)">
                <g id="编组">
                    <mask id="mask-2" fill="white">
                        <use xlink:href="#path-1"></use>
                    </mask>
                    <g id="Clip-2"></g>
                    <path d="M8.60925558,22.7272727 C9.36247997,22.7272727 10,22.1022172 10,21.3635531 C10,20.624889 9.36247997,20.0567627 8.66710776,20 C7.91371359,20 7.27640579,20.624889 7.27640579,21.3635531 C7.21834138,22.1022172 7.85586141,22.6703436 8.60925558,22.7272727 Z" id="Fill-1" fill="#B0B0B0" mask="url(#mask-2)"></path>
                    <polygon id="Fill-3" fill="#B0B0B0" mask="url(#mask-2)" points="3.27519327 25.4545455 0 25.4545455 -7.09659604e-18 0 16.3636364 0 16.3636364 11.0363176 14.5839609 11.0363176 14.5839609 1.95796173 1.78260024 1.95796173 1.78260024 23.555991 3.27519327 23.555991"></polygon>
                </g>
                <path d="M4.54545455,12.7272727 L4.54545455,29.0909091 L30,29.0909091 L30,12.7272727 L4.54545455,12.7272727 Z M6.36363636,27.2727273 L10.9090909,27.2727273 L10.9090909,14.5454545 L6.36363636,14.5454545 L6.36363636,27.2727273 Z M12.7272727,27.2727273 L28.1818182,27.2727273 L28.1818182,14.5454545 L12.7272727,14.5454545 L12.7272727,27.2727273 Z M29.0909091,5.52281386 C28.9700519,7.33714794 28.849239,9.0947153 28.7283819,10.9090909 C27.0365586,10.0019862 25.4052303,9.0947153 23.7133628,8.18761055 C24.3175158,7.90406764 24.8613509,7.62069084 25.4052303,7.33714794 C25.103021,6.88359556 24.800856,6.4866438 24.438373,6.08973356 C23.1695276,4.55894239 21.7195072,3.19828526 19.9068268,2.23441379 C19.5443438,2.06423822 19.1818608,1.95087089 18.8191566,1.78069531 C18.8191566,1.78069531 19.6651567,0.136536804 19.6651567,0.136536804 C22.8070447,1.49731851 25.2843731,3.53842878 27.0968765,6.31650975 C27.0968765,6.37327647 27.1573715,6.37327647 27.2177337,6.43004319 C27.7615688,6.20310089 28.4262168,5.86295737 29.0909091,5.52281386 Z" id="Fill-4" fill="#B0B0B0"></path>
            </g>
        </g>
    </g>
</svg>