<?xml version="1.0" standalone="no"?><!DOCTYPE svg PUBLIC "-//W3C//DTD SVG 1.1//EN" "http://www.w3.org/Graphics/SVG/1.1/DTD/svg11.dtd"><svg class="icon" width="200px" height="200.00px" viewBox="0 0 1024 1024" version="1.1" xmlns="http://www.w3.org/2000/svg"><path d="M511.2 393.93333333c66.2 0 136.8 21.2 209.9 63.1 65.8 37.7 119.8 84.3 153.8 117.2-34.1 32.9-88 79.5-153.8 117.2-73.1 41.8-143.8 63.1-209.9 63.1-66.2 0-136.9-21.3-210.2-63.2-65.6-37.6-119.5-84.1-153.6-117 34.1-32.9 87.9-79.4 153.6-117 73.3-42.2 144-63.4 210.2-63.4m0-75.6c-186.5 0-347.8 130.6-424.7 205.2-31 30.1-31 71.3 0 101.2 76.9 74.6 238.2 205.2 424.7 205.2 186.3 0 347.4-130.3 424.4-204.9 31.2-30.2 31.2-71.6 0-101.8-77-74.6-238.1-204.9-424.4-204.9z"  /><path d="M512.5 515.83333333c32.1 0 58.3 26.1 58.3 58.3 0 32.2-26.2 58.2-58.3 58.2s-58.3-26.1-58.3-58.3 26.1-58.2 58.3-58.2m0-82c-77.5 0-140.3 62.8-140.3 140.3S435 714.33333333 512.5 714.33333333s140.3-62.8 140.3-140.3-62.9-140.2-140.3-140.2zM943.5 287.53333333c-15-17-40.9-18.6-57.9-3.6-8.1 7.1-18.4 11.1-29.2 11.1s-21.2-3.9-29.2-11.1c-1-0.9-2-1.7-3.1-2.5-88.2-76.7-201-118.9-318.1-118.9-118.5 0-232.7 43.2-321.4 121.7-1.2 1-2.3 2.2-3.3 3.3-0.2 0.2-0.5 0.4-0.7 0.6-8.1 7.1-18.4 11.1-29.2 11.1s-21.2-3.9-29.2-11.1c-17-15-42.9-13.4-57.9 3.5-15 17-13.4 42.9 3.5 57.9 23.1 20.4 52.8 31.7 83.6 31.7 30.8 0 60.5-11.2 83.5-31.6 1.2-1 2.3-2.2 3.3-3.3 0.3-0.2 0.5-0.4 0.8-0.7 73.7-65.2 168.5-101.1 267-101.1 98.4 0 193.2 35.9 266.8 101 1.2 1 2.4 2 3.6 2.8 22.5 18.5 50.7 28.6 80 28.6 30.8 0 60.5-11.2 83.5-31.6 17-14.9 18.6-40.8 3.6-57.8z"  /></svg>