<?xml version="1.0" standalone="no"?><!DOCTYPE svg PUBLIC "-//W3C//DTD SVG 1.1//EN" "http://www.w3.org/Graphics/SVG/1.1/DTD/svg11.dtd"><svg class="icon" width="200px" height="200.00px" viewBox="0 0 1024 1024" version="1.1" xmlns="http://www.w3.org/2000/svg"><path d="M746.4 339.2c-16.3-16.3-42.9-16.3-59.2 0L512.7 513.8l-67.1-67.1c-8.1-8.1-18.9-12.2-29.6-12.2-10.7 0-21.5 4.1-29.6 12.2l-97 97c-16.3 16.3-16.3 42.9 0 59.2 16.3 16.3 42.9 16.3 59.2 0l67.4-67.4 63.6 63.6c1 1.3 2.1 2.6 3.4 3.8 8.2 8.2 19 12.3 29.8 12.2 10.8 0.1 21.6-4 29.8-12.2 1.2-1.2 2.3-2.5 3.4-3.8l200.5-200.5c16.2-16.5 16.2-43.1-0.1-59.4zM832.2 726c0 23-18.8 41.8-41.8 41.8H233.9c-23 0-41.8-18.8-41.8-41.8 0-23 18.8-41.8 41.8-41.8h556.5c22.9-0.1 41.8 18.8 41.8 41.8z"  /><path d="M756.4 210c32.1 0 62.4 12.6 85.3 35.6 22.9 22.9 35.6 53.2 35.6 85.3v394.5c0 32.1-12.6 62.4-35.6 85.3-22.9 22.9-53.2 35.6-85.3 35.6H267.1c-32.1 0-62.4-12.6-85.3-35.6-22.9-22.9-35.6-53.2-35.6-85.3V330.9c0-32.1 12.6-62.4 35.6-85.3S235 210 267.1 210h489.3m0-82H267.1c-111.6 0-202.9 91.3-202.9 202.9v394.5c0 111.6 91.3 202.9 202.9 202.9h489.3c111.6 0 202.9-91.3 202.9-202.9V330.9C959.3 219.3 868 128 756.4 128z"  /></svg>